Patient4_TMGait_0pt5_01_left_11_EMG.mot
version=1
nRows=13
nColumns=33
inDegrees=no
endheader
time	1LAddLong	2LGlutMax	3LGlutMed	4LIliopsoas	5LSemiMemb	6LBicFemLong	7LRecFem	8LVastMed	9LVastLat	10LGasMed	11LTibAnt	12lTibPost	13LPeroneusLong	14LSol	15LExtDigLong	16LFlexDigLong	17RAddLong	18RGlutMax	19RGlutMed	20RIliopsoas	21RSemiMemb	22RBicFemLong	23RRecFem	24RVastMed	25RVastLat	26RGasMed	27RTibAnt	28RTibPost	29RPeroneusLong	30RSol	31RExtDigLong	32RFlexDigLong
14.81	0.000458	0.28702	-0.032349	0.011597	0.006561	0.044556	0.001984	-0.001221	0.2153	-0.025482	0.12329	0.007324	-0.024872	-0.018005	0.12161	0.007629	0.023499	-0.041809	-0.006256	0.06073	-0.021057	-0.20615	-0.21301	-0.16403	-0.030212	-0.047455	0.028381	-0.001678	0.14267	-0.12177	-0.000916	-0.012207
14.811	0.001984	0.26886	-0.018005	0.003815	-0.018005	0.044708	-0.009155	0.005341	0.22339	-0.042877	0.023041	0.005798	0.002747	-0.039978	0.10147	0.012054	0.025177	-0.093689	-0.037689	0.053253	-0.023804	-0.16174	-0.21362	-0.17364	-0.039825	-0.07431	-0.23605	-0.009003	0.12405	0.088043	-0.001526	-0.016785
14.812	0.003967	0.23529	-0.061798	0.004578	-0.013123	0.059204	-0.010834	0.010376	0.22308	-0.018768	0.004425	-0.000763	0.011292	-0.12314	0.069122	-0.002136	0.0177	-0.10269	-0.11231	0.015411	-0.024567	-0.20157	-0.005646	-0.13199	-0.030975	-0.046844	-0.43076	-0.013275	0.019989	-0.18509	-0.003052	0.001373
14.813	0.010071	0.20645	-0.057526	0.002899	-0.021973	0.034485	-0.017853	0.006714	0.21255	-0.0354	0.010986	0.002747	0.015717	-0.13916	-0.078888	0.009308	0.007629	-0.022736	0.034943	0.050049	-0.02594	-0.14191	-0.13458	-0.16632	0.063782	-0.011902	-0.52383	-0.019379	-0.08316	0.064697	-0.00351	-0.014496
14.814	0.005798	0.15289	-0.037689	0.008545	0.044708	0.018158	-0.024261	0.005341	0.21759	-0.032806	0.05661	0.002289	0.020294	-0.091553	-0.15121	-0.002441	-0.005493	-0.1384	0.065765	0.062408	-0.00412	-0.10346	-0.11185	-0.19836	0.19714	0.006104	-0.46432	-0.005188	-0.21713	0.49622	-0.003052	-0.012054
14.815	0.015717	0.10117	-0.046844	0.002136	0.05188	0.032349	-0.015411	0.000153	0.20584	-0.036621	0.10574	0.010834	-0.004578	-0.079193	-0.16327	0.003815	-0.018921	-0.20554	0.30502	0.025635	-0.007019	-0.25452	0.21011	-0.16281	0.14282	0.023804	-0.012054	-0.001373	-0.18143	0.33493	-0.000458	-0.00824
14.816	0.024567	0.10056	-0.065155	0.007629	0.035706	0.045929	0.00473	0.008698	0.20432	-0.0354	0.12634	-0.000458	0.009613	-0.087891	0.002441	-0.001984	-0.014343	-0.02121	0.30685	-0.009613	-0.020599	-0.042419	0.22079	-0.15839	-0.087585	0.039215	0.83878	0.014343	-0.063934	0.10269	-0.001526	-0.005798
14.817	0.010529	0.093842	-0.11887	-0.001373	0.02121	0.064087	-0.014191	0.003967	0.20325	-0.043335	0.17853	0.006256	0.014954	-0.05127	0.1178	0.003815	-0.005646	0.001068	0.4895	-0.046387	-0.018158	0.16388	-0.37552	-0.18036	-0.20966	-0.010376	1.5482	0.055389	-0.059357	-0.23422	-0.002136	-0.001984
14.818	-0.003204	0.045166	-0.14572	0.011902	-0.013275	0.088806	-0.032501	0.000305	0.20477	-0.079651	0.068512	-0.005951	0.10559	-0.040588	0.059662	0.016174	-0.019379	-0.06134	0.73761	-0.059662	-0.009613	0.47302	-0.5397	-0.081635	-0.086517	-0.015869	0.69061	0.009766	0.096283	-0.44006	-0.002289	-0.011444
14.819	-0.009613	0.019073	-0.15961	0.004425	-0.026855	0.07843	-0.04425	-0.002289	0.20111	-0.058441	-0.023346	-0.001373	0.061951	-0.057678	0.054626	0.000458	-0.007172	0.013275	0.29434	-0.06546	-0.001068	0.58502	-0.041962	-0.028229	0.018616	0.02121	0.036011	-0.15945	0.20126	-0.32028	-0.000458	-0.011597
14.82	-0.014343	-0.027466	-0.085449	0.004883	-0.012817	0.03891	-0.042572	0.00061	0.19196	-0.02182	-0.10834	0.003052	-0.025635	-0.082703	-0.032806	-0.000916	-0.009918	-0.042267	0.233	-0.10361	0.000458	0.45776	0.3096	0.14801	0.026245	0.005951	-0.26779	0.11078	0.008087	-0.080872	-0.00351	-0.014801
14.821	0.024414	-0.10361	0.13626	0.004883	0.037537	0.019379	-0.020447	-0.001984	0.19196	-0.037231	-0.12192	0.003052	0.003204	-0.06073	-0.12238	0.000763	-0.001526	-0.09491	0.49728	-0.12802	0.001831	0.36194	0.3743	0.15854	0.047913	-0.004272	0.1442	0.034943	-0.22522	-0.10117	-0.003204	-0.019226
14.822	0.031891	-0.15595	0.061493	-0.014343	0.037079	0.028687	-0.039978	0.005341	0.1831	-0.050507	-0.071259	0.005951	0.026398	-0.072327	-0.08606	-0.17654	-0.008392	-0.13519	-0.12131	-0.12833	0.055237	0.44937	0.2771	0.34225	0.096283	0.002136	0.10803	0.034943	0.013733	-0.2948	-0.004578	-0.008545
